<svg width="60" height="68" viewBox="0 0 60 68" fill="none" xmlns="http://www.w3.org/2000/svg">
<g clip-path="url(#clip0_132_448)">
<g clip-path="url(#clip1_132_448)">
<mask id="mask0_132_448" style="mask-type:luminance" maskUnits="userSpaceOnUse" x="0" y="0" width="60" height="61">
<path d="M59.305 0.72998H0V60.035H59.305V0.72998Z" fill="white"/>
</mask>
<g mask="url(#mask0_132_448)">
<path d="M37.7141 5.01569H29.1426L18.8569 15.3014L23.9998 18.3014L29.1426 13.1586L39.8569 23.8728L43.7141 28.5871L49.2855 29.4443L51.8569 24.73V8.44427L47.5712 5.01569H37.7141Z" fill="#FDC040"/>
<path d="M55.3668 13.0627H53.048L53.0502 8.91725C53.0516 6.13415 50.7888 3.86868 48.0052 3.86732L30.4063 3.85737H30.4041C29.4023 3.85737 28.4603 4.24739 27.7517 4.95594L1.47819 31.2294C0.524855 32.1828 0 33.4501 0 34.7985C0 36.1469 0.524855 37.4142 1.47819 38.3675L18.5288 55.4181C19.5129 56.4022 20.8055 56.894 22.0977 56.894C23.3905 56.894 24.6831 56.4022 25.6672 55.4181L42.2092 38.8761C42.6617 38.4236 42.6617 37.6902 42.2092 37.2382C41.7567 36.7857 41.0233 36.7857 40.5709 37.2382L24.0289 53.7802C22.9642 54.8448 21.2318 54.8448 20.1671 53.7802L3.11655 36.7296C2.60075 36.2138 2.3166 35.5278 2.3166 34.7985C2.3166 34.0692 2.60075 33.3832 3.11655 32.8673L29.3896 6.59431C29.6607 6.32328 30.0208 6.17397 30.4041 6.17397H30.405L48.0039 6.18393C49.5097 6.18437 50.7345 7.41055 50.7336 8.91634L50.7282 18.6226H45.5109C45.0615 18.6226 44.6547 18.4388 44.3607 18.1429C44.8453 17.9352 45.2996 17.6352 45.6945 17.2403C47.3591 15.5752 47.3591 12.8668 45.6945 11.2022C44.0295 9.53712 41.3211 9.53712 39.656 11.2022C37.9914 12.8668 37.9914 15.5752 39.656 17.2403C40.2731 17.8574 41.0342 18.2452 41.8319 18.405C42.3988 19.8849 43.8336 20.9392 45.5109 20.9392H50.7268L50.7237 26.4918C50.7237 26.875 50.5743 27.2347 50.3033 27.5052L47.1234 30.6856C46.6709 31.1381 46.6709 31.8715 47.1234 32.324C47.5755 32.776 48.3088 32.776 48.7613 32.324L51.9417 29.1437C52.6493 28.4355 53.0398 27.4944 53.0403 26.4931L53.0434 20.9392H55.3668C57.5382 20.9392 59.305 19.1728 59.305 17.001C59.305 14.8296 57.5382 13.0627 55.3668 13.0627ZM41.2943 12.8401C41.6753 12.4591 42.1753 12.2691 42.6757 12.2691C43.1757 12.2691 43.6756 12.4596 44.0566 12.8401C44.177 12.9609 44.2765 13.0944 44.3589 13.2351C43.0875 13.6247 42.0885 14.6423 41.7233 15.9246C41.5699 15.839 41.4247 15.7326 41.2943 15.6024C40.5328 14.8404 40.5328 13.6016 41.2943 12.8401ZM55.3668 18.6226H53.0448L53.0466 15.3793H55.3668C56.2609 15.3793 56.9884 16.1069 56.9884 17.001C56.9884 17.895 56.2609 18.6226 55.3668 18.6226Z" fill="#2A512A"/>
<path d="M18.6965 33.0819C18.839 33.5945 19.3046 33.9298 19.8114 33.9298C19.9146 33.9298 20.019 33.9162 20.1227 33.8873L32.0134 30.5775C32.6296 30.406 32.9902 29.7671 32.8188 29.1509C32.6472 28.5351 32.0088 28.1745 31.3921 28.3459L19.5014 31.6553C18.8856 31.8272 18.525 32.4656 18.6965 33.0819Z" fill="#2A512A"/>
<path d="M23.9305 34.6103C23.2853 35.2555 22.9302 36.1129 22.9302 37.0255C22.9302 37.9377 23.2853 38.7951 23.9305 39.4404C24.5965 40.1059 25.4707 40.4389 26.3453 40.4389C27.2199 40.4389 28.0945 40.1059 28.7605 39.4404C30.0921 38.1087 30.0921 35.9418 28.7605 34.6103C27.429 33.2787 25.2621 33.2787 23.9305 34.6103ZM27.1222 37.8019C26.6937 38.2304 25.9969 38.2304 25.5685 37.8019C25.3608 37.5947 25.2468 37.3187 25.2468 37.0251C25.2468 36.7319 25.3612 36.4559 25.5685 36.2482C25.7829 36.0342 26.0643 35.9269 26.3453 35.9269C26.6268 35.9269 26.9082 36.0342 27.1222 36.2482C27.5507 36.6767 27.5507 37.3739 27.1222 37.8019Z" fill="#2A512A"/>
<path d="M29.3345 27.7139C30.6661 26.3819 30.6661 24.2154 29.3345 22.8839C28.6894 22.2387 27.8315 21.8835 26.9193 21.8835C26.0071 21.8835 25.1493 22.2387 24.5045 22.8839C23.173 24.2154 23.173 26.3819 24.5045 27.7139C25.1705 28.3794 26.0447 28.7124 26.9193 28.7124C27.7939 28.7124 28.6685 28.3794 29.3345 27.7139ZM26.1425 24.5218C26.3501 24.3141 26.6261 24.2001 26.9193 24.2001C27.2129 24.2001 27.4889 24.3141 27.6962 24.5218C28.1247 24.9503 28.1247 25.647 27.6962 26.0755C27.2681 26.504 26.5709 26.504 26.1425 26.0755C25.7144 25.647 25.7144 24.9503 26.1425 24.5218Z" fill="#2A512A"/>
<path d="M11.5204 30.6884C11.068 30.2359 10.3345 30.2359 9.88201 30.6884L6.59081 33.9796C6.37363 34.1968 6.25146 34.4913 6.25146 34.7985C6.25146 35.1058 6.37363 35.4003 6.59081 35.6175L21.2791 50.3057C21.5049 50.5315 21.8017 50.6447 22.098 50.6447C22.3944 50.6447 22.6907 50.5315 22.917 50.3057L44.8776 28.3446C45.3301 27.8921 45.3301 27.1587 44.8776 26.7063L30.1899 12.0185C29.9727 11.8013 29.6781 11.6791 29.3709 11.6791C29.0637 11.6791 28.7691 11.8013 28.552 12.0185L16.4345 24.1358C15.9821 24.5883 15.9821 25.3218 16.4345 25.7742C16.8866 26.2262 17.62 26.2262 18.0724 25.7742L29.3709 14.4758L42.4208 27.5256L22.098 47.8484L9.0481 34.7985L11.5204 32.3263C11.9724 31.8738 11.9728 31.1408 11.5204 30.6884Z" fill="#2A512A"/>
<path d="M44.6666 33.6226C44.3617 33.6226 44.063 33.7465 43.8476 33.9619C43.6323 34.1773 43.5083 34.4764 43.5083 34.7808C43.5083 35.0854 43.6323 35.3844 43.8476 35.5998C44.063 35.8152 44.3617 35.9392 44.6666 35.9392C44.9711 35.9392 45.2697 35.8152 45.4856 35.5998C45.701 35.3844 45.8249 35.0854 45.8249 34.7808C45.8249 34.4764 45.701 34.1773 45.4856 33.9619C45.2697 33.7465 44.9711 33.6226 44.6666 33.6226Z" fill="#2A512A"/>
<path d="M14.7956 29.0496C15.0124 28.8342 15.1354 28.5365 15.1354 28.2306C15.1354 27.9261 15.0124 27.6284 14.7956 27.4116C14.5803 27.1963 14.2825 27.0723 13.9771 27.0723C13.6721 27.0723 13.3735 27.1963 13.1582 27.4116C12.9424 27.627 12.8188 27.9261 12.8188 28.2306C12.8188 28.5365 12.9424 28.8342 13.1582 29.0496C13.3744 29.2663 13.6721 29.3889 13.9771 29.3889C14.2825 29.3889 14.5803 29.2663 14.7956 29.0496Z" fill="#2A512A"/>
</g>
</g>
</g>
<defs>
<clipPath id="clip0_132_448">
<rect width="60" height="60" fill="white" transform="translate(0 0.72998)"/>
</clipPath>
<clipPath id="clip1_132_448">
<rect width="60" height="60" fill="white" transform="translate(0 0.72998)"/>
</clipPath>
</defs>
</svg>
