<svg width="24" height="25" viewBox="0 0 24 25" fill="none" xmlns="http://www.w3.org/2000/svg">
<path d="M1.60064 0.826904C1.21873 0.826904 0.852463 0.974069 0.582411 1.23602C0.312358 1.49798 0.160645 1.85327 0.160645 2.22373C0.160645 2.59419 0.312358 2.94948 0.582411 3.21143C0.852463 3.47339 1.21873 3.62056 1.60064 3.62056H3.35744L3.79664 5.32748C3.80101 5.34713 3.80581 5.36669 3.81104 5.38614L5.76656 12.9709L4.48064 14.2169C2.66624 15.9769 3.95072 18.9856 6.5168 18.9856H18.8806C19.2626 18.9856 19.6288 18.8385 19.8989 18.5765C20.1689 18.3146 20.3206 17.9593 20.3206 17.5888C20.3206 17.2183 20.1689 16.8631 19.8989 16.6011C19.6288 16.3392 19.2626 16.192 18.8806 16.192H6.5168L7.9568 14.7952H17.4406C17.708 14.795 17.97 14.7227 18.1974 14.5863C18.4248 14.4498 18.6085 14.2547 18.728 14.0227L23.048 5.64176C23.1577 5.42886 23.2095 5.1923 23.1984 4.95453C23.1874 4.71677 23.1139 4.48568 22.9849 4.2832C22.856 4.08072 22.6758 3.91357 22.4615 3.79759C22.2473 3.68162 22.006 3.62068 21.7606 3.62056H6.32384L5.87744 1.8843C5.79944 1.58224 5.61962 1.31413 5.36654 1.12255C5.11347 0.930971 4.80166 0.826912 4.48064 0.826904H1.60064Z" fill="#2a512a"/>
<path d="M20.3207 22.4778C20.3207 23.0335 20.0932 23.5664 19.6881 23.9594C19.283 24.3523 18.7336 24.573 18.1607 24.573C17.5879 24.573 17.0385 24.3523 16.6334 23.9594C16.2283 23.5664 16.0007 23.0335 16.0007 22.4778C16.0007 21.9221 16.2283 21.3892 16.6334 20.9962C17.0385 20.6033 17.5879 20.3826 18.1607 20.3826C18.7336 20.3826 19.283 20.6033 19.6881 20.9962C20.0932 21.3892 20.3207 21.9221 20.3207 22.4778Z" fill="black"/>
<path d="M6.64071 24.573C7.21358 24.573 7.76299 24.3523 8.16806 23.9594C8.57314 23.5664 8.80071 23.0335 8.80071 22.4778C8.80071 21.9221 8.57314 21.3892 8.16806 20.9962C7.76299 20.6033 7.21358 20.3826 6.64071 20.3826C6.06785 20.3826 5.51844 20.6033 5.11336 20.9962C4.70828 21.3892 4.48071 21.9221 4.48071 22.4778C4.48071 23.0335 4.70828 23.5664 5.11336 23.9594C5.51844 24.3523 6.06785 24.573 6.64071 24.573Z" fill="black"/>
</svg>
