<svg width="25" height="18" viewBox="0 0 25 18" fill="none" xmlns="http://www.w3.org/2000/svg">
<path fill-rule="evenodd" clip-rule="evenodd" d="M0 1.125L1.08696 0H23.913L25 1.125V7.1718H23.913C22.9375 7.1718 22.1467 7.99035 22.1467 9C22.1467 10.0097 22.9375 10.8282 23.913 10.8282H25V16.875L23.913 18H1.08696L0 16.875V10.8282H1.08696C2.06246 10.8282 2.85326 10.0097 2.85326 9C2.85326 7.99035 2.06246 7.1718 1.08696 7.1718H0V1.125ZM2.17391 2.25V5.07903C3.82141 5.56735 5.02717 7.1379 5.02717 9C5.02717 10.8621 3.82141 12.4326 2.17391 12.921V15.75H7.6087V2.25H2.17391ZM9.78261 2.25V15.75H22.8261V12.921C21.1786 12.4326 19.9728 10.8621 19.9728 9C19.9728 7.1379 21.1786 5.56735 22.8261 5.07903V2.25H9.78261Z" fill="#EDEBEE"/>
</svg>
