<svg width="38" height="35" viewBox="0 0 38 35" fill="none" xmlns="http://www.w3.org/2000/svg">
<path d="M1.21944 31.1035C0.288834 31.9949 0.288834 33.44 1.21944 34.3314C2.15004 35.2229 3.65888 35.2229 4.58948 34.3314L1.21944 31.1035ZM20.4759 19.114C21.4066 18.2226 21.4066 16.7775 20.4759 15.8861C19.5453 14.9946 18.0367 14.9946 17.1061 15.8861L20.4759 19.114ZM17.1061 15.8861C16.1754 16.7775 16.1754 18.2226 17.1061 19.114C18.0367 20.0054 19.5453 20.0054 20.4759 19.114L17.1061 15.8861ZM36.3625 3.89666C37.2931 3.00525 37.2931 1.55996 36.3625 0.668555C35.4318 -0.222852 33.9232 -0.222852 32.9926 0.668555L36.3625 3.89666ZM20.4759 15.8861C19.5453 14.9946 18.0367 14.9946 17.1061 15.8861C16.1754 16.7775 16.1754 18.2226 17.1061 19.114L20.4759 15.8861ZM32.9926 34.3314C33.9232 35.2229 35.4318 35.2229 36.3625 34.3314C37.2931 33.44 37.2931 31.9949 36.3625 31.1035L32.9926 34.3314ZM17.1061 19.114C18.0367 20.0054 19.5453 20.0054 20.4759 19.114C21.4066 18.2226 21.4066 16.7775 20.4759 15.8861L17.1061 19.114ZM4.58948 0.668555C3.65888 -0.222852 2.15004 -0.222852 1.21944 0.668555C0.288834 1.55996 0.288834 3.00525 1.21944 3.89666L4.58948 0.668555ZM4.58948 34.3314L20.4759 19.114L17.1061 15.8861L1.21944 31.1035L4.58948 34.3314ZM20.4759 19.114L36.3625 3.89666L32.9926 0.668555L17.1061 15.8861L20.4759 19.114ZM17.1061 19.114L32.9926 34.3314L36.3625 31.1035L20.4759 15.8861L17.1061 19.114ZM20.4759 15.8861L4.58948 0.668555L1.21944 3.89666L17.1061 19.114L20.4759 15.8861Z" fill="black"/>
</svg>
