<svg width="60" height="68" viewBox="0 0 60 68" fill="none" xmlns="http://www.w3.org/2000/svg">
<g clip-path="url(#clip0_132_486)">
<g clip-path="url(#clip1_132_486)">
<g clip-path="url(#clip2_132_486)">
<mask id="mask0_132_486" style="mask-type:luminance" maskUnits="userSpaceOnUse" x="0" y="0" width="60" height="61">
<path d="M59.6295 0.72998H0.324463V60.035H59.6295V0.72998Z" fill="white"/>
</mask>
<g mask="url(#mask0_132_486)">
<path d="M40.2857 58.1586C48.8067 58.1586 55.7143 51.2509 55.7143 42.73C55.7143 34.209 48.8067 27.3014 40.2857 27.3014C31.7648 27.3014 24.8572 34.209 24.8572 42.73C24.8572 51.2509 31.7648 58.1586 40.2857 58.1586Z" fill="#FDC040"/>
<path d="M43.4069 26.4026V15.1794C43.4069 14.8581 43.2585 14.5613 43.0486 14.3264L30.4656 1.11322C30.2308 0.866171 29.8968 0.72998 29.5634 0.72998H9.61349C5.93043 0.72998 2.98853 3.73342 2.98853 7.41691V45.1409C2.98853 48.8244 5.93043 51.7785 9.61349 51.7785H25.3609C28.3395 56.7226 33.7536 60.035 39.9211 60.035C49.2903 60.035 56.9414 52.421 56.9414 43.0397C56.9541 34.8447 51.0702 27.9972 43.4069 26.4026ZM30.7995 5.06863L39.2416 13.9554H33.7659C32.1343 13.9554 30.7995 12.6084 30.7995 10.9769V5.06863ZM9.61349 49.3062C7.30229 49.3062 5.46077 47.4521 5.46077 45.1409V7.41691C5.46077 5.09307 7.30229 3.20223 9.61349 3.20223H28.3272V10.9769C28.3272 13.9803 30.7624 16.4277 33.7659 16.4277H40.9347V26.0809C40.5641 26.0688 40.2672 26.0316 39.9461 26.0316C35.6322 26.0316 31.6646 27.6881 28.6734 30.2838H12.9757C12.2957 30.2838 11.7396 30.84 11.7396 31.5195C11.7396 32.1996 12.2957 32.7557 12.9757 32.7557H26.3744C25.4967 33.9918 24.7673 35.2279 24.199 36.5875H12.9757C12.2957 36.5875 11.7396 37.1436 11.7396 37.8237C11.7396 38.5032 12.2957 39.0598 12.9757 39.0598H23.3954C23.0864 40.296 22.9258 41.6678 22.9258 43.0397C22.9258 45.2644 23.3584 47.4648 24.137 49.3189H9.61349V49.3062ZM39.9338 57.5754C31.9243 57.5754 25.4103 51.0613 25.4103 43.0518C25.4103 35.0424 31.9116 28.5283 39.9338 28.5283C47.9555 28.5283 54.4569 35.0424 54.4569 43.0518C54.4569 51.0613 47.9433 57.5754 39.9338 57.5754Z" fill="#2A512A"/>
<path d="M12.9758 26.5632H25.4968C26.1769 26.5632 26.733 26.0067 26.733 25.3272C26.733 24.6471 26.1769 24.091 25.4968 24.091H12.9758C12.2958 24.091 11.7397 24.6471 11.7397 25.3272C11.7397 26.0067 12.2958 26.5632 12.9758 26.5632Z" fill="#2A512A"/>
<path d="M39.5255 35.4256C39.6246 35.45 39.7233 35.4627 39.8224 35.4627C39.9459 35.4627 40.0572 35.45 40.1685 35.4129C41.8001 35.5491 43.0733 36.9088 43.0733 38.5652C43.0733 39.2448 43.6294 39.8009 44.309 39.8009C44.9891 39.8009 45.5451 39.2448 45.5451 38.5652C45.5451 35.8459 43.6172 33.5714 41.0585 33.0398V32.2488C41.0585 31.5688 40.502 31.0128 39.8224 31.0128C39.1423 31.0128 38.5862 31.5688 38.5862 32.2488V33.0895C36.114 33.6828 34.2725 35.9202 34.2725 38.5652C34.2725 41.68 36.8063 44.2015 39.9088 44.2015C41.6517 44.2015 43.0733 45.6228 43.0733 47.3656C43.0733 49.1085 41.6639 50.5423 39.9088 50.5423C38.1659 50.5423 36.7447 49.1207 36.7447 47.3778C36.7447 46.6982 36.1882 46.1417 35.5086 46.1417C34.8286 46.1417 34.2725 46.6982 34.2725 47.3778C34.2725 50.0356 36.114 52.2603 38.5862 52.8535V54.1267C38.5862 54.8068 39.1423 55.3629 39.8224 55.3629C40.502 55.3629 41.0585 54.8068 41.0585 54.1267V52.8906C43.6172 52.359 45.5451 50.0849 45.5451 47.3656C45.5451 44.2509 43.0113 41.7293 39.9088 41.7293C38.1659 41.7293 36.7447 40.3077 36.7447 38.5652C36.7447 36.9581 37.9559 35.6112 39.5255 35.4256Z" fill="#2A512A"/>
</g>
</g>
</g>
</g>
<defs>
<clipPath id="clip0_132_486">
<rect width="60" height="60" fill="white" transform="translate(0 0.72998)"/>
</clipPath>
<clipPath id="clip1_132_486">
<rect width="60" height="60" fill="white" transform="translate(0 0.72998)"/>
</clipPath>
<clipPath id="clip2_132_486">
<rect width="60" height="60" fill="white" transform="translate(0 0.72998)"/>
</clipPath>
</defs>
</svg>
