<svg width="43" height="43" viewBox="0 0 43 43" fill="none" xmlns="http://www.w3.org/2000/svg">
<path d="M21.8003 4.33752C12.3774 4.33752 4.73779 12.0233 4.73779 21.503C4.73779 30.0695 10.9765 37.1698 19.1349 38.4625V26.4661H14.8006V21.503H19.1349V17.7211C19.1349 13.4156 21.6826 11.0413 25.5783 11.0413C27.4451 11.0413 29.4007 11.3761 29.4007 11.3761V15.5975H27.2438C25.1278 15.5975 24.4657 16.9228 24.4657 18.2807V21.4996H29.1942L28.4383 26.4626H24.4657V38.4591C32.6241 37.1733 38.8628 30.0712 38.8628 21.503C38.8628 12.0233 31.2231 4.33752 21.8003 4.33752V4.33752Z" fill="white"/>
</svg>
