<svg width="22" height="20" viewBox="0 0 22 20" fill="none" xmlns="http://www.w3.org/2000/svg">
<path d="M15.8579 0.891938C18.7639 0.891938 21.1202 3.28076 21.1202 6.22683C21.1202 7.74045 20.4979 9.1043 19.4993 10.0757L11.0008 18.7349L2.34806 9.91926C1.4402 8.96038 0.880627 7.66096 0.880627 6.22683C0.880627 3.27992 3.23694 0.891938 6.14293 0.891938C8.33171 0.891938 10.2077 2.24742 11.0008 4.17521C11.794 2.24742 13.6691 0.891938 15.8579 0.891938ZM15.8579 0C13.9225 0 12.1447 0.911183 11 2.41309C9.85609 0.911183 8.07833 0 6.14211 0C2.75495 0 0 2.79379 0 6.22683C0 7.84002 0.608269 9.37121 1.71256 10.5376L11 20L20.1224 10.7058C21.3274 9.53269 22 7.93792 22 6.22767C22 2.79379 19.2442 0.000837053 15.8579 0.000837053V0Z" fill="#EDEBEE"/>
</svg>
