<svg width="43" height="43" viewBox="0 0 43 43" fill="none" xmlns="http://www.w3.org/2000/svg">
<path d="M38.5527 14.4097C38.5336 12.9768 38.2649 11.5583 37.7587 10.2174C37.3197 9.08633 36.6492 8.05915 35.7901 7.20145C34.931 6.34375 33.9021 5.67439 32.7692 5.23615C31.4433 4.73927 30.0426 4.4706 28.6267 4.44158C26.8037 4.36023 26.2258 4.33752 21.5982 4.33752C16.9706 4.33752 16.3775 4.33752 14.5678 4.44158C13.1525 4.47081 11.7525 4.73948 10.4272 5.23615C9.29414 5.67409 8.26509 6.34334 7.40592 7.20107C6.54675 8.05881 5.87639 9.08615 5.43772 10.2174C4.93902 11.54 4.67048 12.938 4.64372 14.351C4.56223 16.1729 4.5376 16.7499 4.5376 21.3698C4.5376 25.9896 4.5376 26.5799 4.64372 28.3885C4.67214 29.8036 4.93934 31.1998 5.43772 32.5259C5.87712 33.6568 6.54799 34.6837 7.40744 35.5411C8.26689 36.3985 9.29604 37.0674 10.4291 37.5053C11.7508 38.0221 13.151 38.31 14.5697 38.3566C16.3946 38.4379 16.9725 38.4625 21.6001 38.4625C26.2277 38.4625 26.8208 38.4625 28.6305 38.3566C30.0464 38.3287 31.4472 38.0607 32.773 37.5639C33.9056 37.1251 34.9342 36.4556 35.7933 35.598C36.6523 34.7403 37.323 33.7134 37.7625 32.5827C38.2609 31.2584 38.5281 29.8622 38.5565 28.4452C38.638 26.6253 38.6626 26.0483 38.6626 21.4265C38.6588 16.8066 38.6588 16.2202 38.5527 14.4097ZM21.5868 30.1063C16.747 30.1063 12.8263 26.1921 12.8263 21.3603C12.8263 16.5285 16.747 12.6143 21.5868 12.6143C23.9103 12.6143 26.1386 13.5358 27.7815 15.176C29.4244 16.8161 30.3474 19.0407 30.3474 21.3603C30.3474 23.6799 29.4244 25.9044 27.7815 27.5446C26.1386 29.1848 23.9103 30.1063 21.5868 30.1063ZM30.6961 14.3302C30.4277 14.3305 30.162 14.2779 29.914 14.1755C29.6661 14.0731 29.4408 13.9229 29.251 13.7334C29.0613 13.544 28.9108 13.3191 28.8082 13.0716C28.7057 12.824 28.653 12.5587 28.6533 12.2908C28.6533 12.0231 28.7061 11.7581 28.8087 11.5107C28.9113 11.2634 29.0617 11.0387 29.2513 10.8494C29.4409 10.6601 29.666 10.51 29.9137 10.4075C30.1615 10.3051 30.427 10.2524 30.6951 10.2524C30.9633 10.2524 31.2288 10.3051 31.4765 10.4075C31.7242 10.51 31.9493 10.6601 32.1389 10.8494C32.3285 11.0387 32.4789 11.2634 32.5815 11.5107C32.6842 11.7581 32.737 12.0231 32.737 12.2908C32.737 13.4184 31.8236 14.3302 30.6961 14.3302Z" fill="white"/>
<path d="M21.6001 26.65C24.4996 26.65 26.8501 24.2995 26.8501 21.4C26.8501 18.5005 24.4996 16.15 21.6001 16.15C18.7006 16.15 16.3501 18.5005 16.3501 21.4C16.3501 24.2995 18.7006 26.65 21.6001 26.65Z" fill="white"/>
</svg>
