<svg width="30" height="30" viewBox="0 0 30 30" fill="none" xmlns="http://www.w3.org/2000/svg">
<path d="M24.8025 23.2884C22.9842 25.38 20.5449 26.8355 17.8407 27.4425C15.1365 28.0494 12.3091 27.7759 9.77139 26.662C7.23366 25.5478 5.1186 23.6515 3.73506 21.25C2.35153 18.8485 1.77199 16.0676 2.08109 13.3133C2.38994 10.5588 3.57139 7.97519 5.45288 5.93983C7.33437 3.90447 9.81734 2.52398 12.5391 2M17.4617 2.01054C19.2895 2.36254 21.0203 3.10307 22.537 4.182C24.0538 5.26094 25.3211 6.6531 26.2531 8.26429C27.1853 9.87549 27.7604 11.6681 27.9396 13.5209C28.1188 15.3737 27.898 17.2433 27.2919 19.0033" stroke="white" stroke-width="3.75" stroke-linecap="round"/>
<path d="M12.1932 14.0683V11.557C12.1932 10.0342 13.4512 8.7998 15.0031 8.7998C16.5551 8.7998 17.813 10.0342 17.813 11.557V14.0683M11.4908 14.0683H18.5155C19.2938 14.0683 19.9204 14.6949 19.9204 15.4733V19.3369C19.9204 20.1152 19.2938 20.7418 18.5155 20.7418H11.4908C10.7124 20.7418 10.0858 20.1152 10.0858 19.3369V15.4733C10.0858 14.6949 10.7124 14.0683 11.4908 14.0683Z" stroke="white" stroke-width="3.75"/>
</svg>
