<svg width="153" height="39" viewBox="0 0 153 39" fill="none" xmlns="http://www.w3.org/2000/svg">
<path d="M16.8316 28L7.78359 17.536L8.62359 11.632L16.8556 21.136L16.8316 28ZM3.15159 28V25.696H4.97559V13.912H3.19959V11.632H8.62359L7.78359 17.536V25.696H9.75159V28H3.15159ZM16.8316 28L16.7356 21.136H16.8556V13.912H14.9116V11.632H21.3916V13.912H19.6396V28H16.8316ZM26.0615 28.288C25.2135 28.288 24.4615 28.136 23.8055 27.832C23.1495 27.512 22.6295 27.032 22.2455 26.392C21.8775 25.736 21.6935 24.896 21.6935 23.872V17.584H20.4455V15.352H26.0135V23.776C26.0135 24.32 26.1735 24.728 26.4935 25C26.8295 25.272 27.2695 25.408 27.8135 25.408C28.1815 25.408 28.5175 25.344 28.8215 25.216C29.1255 25.072 29.3735 24.848 29.5655 24.544C29.7575 24.224 29.8535 23.8 29.8535 23.272L30.5735 23.248C30.5735 24.272 30.4455 25.16 30.1895 25.912C29.9335 26.664 29.4855 27.248 28.8455 27.664C28.2055 28.08 27.2775 28.288 26.0615 28.288ZM30.3815 28V23.92L29.8535 24.016V17.584H28.2935V15.352H34.2215V25.744H35.7335V28H30.3815ZM41.8166 28.312C40.0886 28.312 38.8406 27.792 38.0726 26.752C37.3206 25.712 37.0006 24.344 37.1126 22.648L37.4486 17.776H34.3766V15.544H34.6166C35.6726 15.544 36.4886 15.424 37.0646 15.184C37.6566 14.944 38.0726 14.576 38.3126 14.08C38.5526 13.584 38.6726 12.952 38.6726 12.184V12.064H41.4326V23.704C41.4326 24.088 41.5366 24.4 41.7446 24.64C41.9526 24.88 42.2486 25 42.6326 25C43.0486 25 43.3526 24.888 43.5446 24.664C43.7526 24.424 43.8566 24.104 43.8566 23.704V21.04H46.5206V23.656C46.5206 25.064 46.1366 26.192 45.3686 27.04C44.6006 27.888 43.4166 28.312 41.8166 28.312ZM41.4326 17.776V15.352H46.7606V17.776H41.4326ZM46.453 28V25.744H48.181V17.608H46.621V15.376H52.021V19.72L52.501 19.624V25.744H55.093V28H46.453ZM51.301 20.152C51.349 18.824 51.589 17.792 52.021 17.056C52.469 16.304 53.045 15.776 53.749 15.472C54.453 15.168 55.197 15.016 55.981 15.016C56.893 15.016 57.621 15.248 58.165 15.712C58.709 16.176 58.981 16.76 58.981 17.464C58.981 18.12 58.765 18.664 58.333 19.096C57.917 19.512 57.341 19.72 56.605 19.72C55.965 19.72 55.453 19.552 55.069 19.216C54.685 18.88 54.493 18.448 54.493 17.92C54.493 17.296 54.685 16.824 55.069 16.504C55.469 16.184 56.109 16.056 56.989 16.12L56.749 17.512C56.669 17.288 56.501 17.12 56.245 17.008C56.005 16.88 55.693 16.816 55.309 16.816C54.861 16.816 54.421 16.936 53.989 17.176C53.557 17.4 53.197 17.76 52.909 18.256C52.637 18.736 52.501 19.368 52.501 20.152H51.301ZM57.9333 28V25.744H59.6613V17.584H58.1013V15.352H63.9813V25.744H65.4933V28H57.9333ZM61.6773 14.44C60.9093 14.44 60.2773 14.232 59.7813 13.816C59.2853 13.4 59.0373 12.824 59.0373 12.088C59.0373 11.352 59.2853 10.776 59.7813 10.36C60.2773 9.944 60.9173 9.736 61.7013 9.736C62.4853 9.736 63.1173 9.944 63.5973 10.36C64.0773 10.776 64.3173 11.352 64.3173 12.088C64.3173 12.824 64.0773 13.4 63.5973 13.816C63.1173 14.232 62.4773 14.44 61.6773 14.44ZM74.1101 28L69.3101 17.992V11.632H71.0861L76.8701 23.68H76.2221L81.6461 11.632H82.0061V17.416L77.2301 28H74.1101ZM64.6781 28V25.696H66.5021V13.912H64.7261V11.632H69.3101V25.696H71.2781V28H64.6781ZM80.0381 28V25.696H82.0061V11.632H88.2221V13.912H86.4701V25.696H88.2701V28H80.0381ZM91.2456 19.984C90.6056 19.984 90.0376 19.824 89.5416 19.504C89.0456 19.168 88.7976 18.656 88.7976 17.968C88.7976 17.344 89.0696 16.824 89.6136 16.408C90.1736 15.976 90.8936 15.648 91.7736 15.424C92.6696 15.2 93.6136 15.088 94.6056 15.088C96.2696 15.088 97.5416 15.424 98.4216 16.096C99.3176 16.768 99.7576 17.784 99.7416 19.144L95.6856 18.664C95.6856 18.104 95.4936 17.704 95.1096 17.464C94.7416 17.208 94.2536 17.08 93.6456 17.08C93.2456 17.08 92.8536 17.128 92.4696 17.224C92.1016 17.32 91.7816 17.48 91.5096 17.704C91.2536 17.928 91.0856 18.232 91.0056 18.616L91.1016 16.672C91.7896 16.704 92.3336 16.848 92.7336 17.104C93.1496 17.36 93.3496 17.752 93.3336 18.28C93.3176 18.792 93.1256 19.208 92.7576 19.528C92.4056 19.832 91.9016 19.984 91.2456 19.984ZM100.198 28.312C98.8376 28.312 97.8136 27.96 97.1256 27.256C96.4536 26.536 96.1176 25.544 96.1176 24.28V23.896H95.6376V21.136H95.5176L95.6856 19.816V18.664L99.7416 19.144V24.664C99.7416 24.952 99.8136 25.192 99.9576 25.384C100.118 25.56 100.326 25.648 100.582 25.648C100.87 25.648 101.086 25.56 101.23 25.384C101.374 25.192 101.446 24.952 101.446 24.664V21.184H104.134V24.328C104.134 25.544 103.806 26.512 103.15 27.232C102.494 27.952 101.51 28.312 100.198 28.312ZM91.9176 28.264C90.6536 28.264 89.6216 27.96 88.8216 27.352C88.0376 26.728 87.6456 25.888 87.6456 24.832C87.6456 24.096 87.8056 23.48 88.1256 22.984C88.4456 22.472 88.8936 22.056 89.4696 21.736C90.0616 21.4 90.7416 21.136 91.5096 20.944L93.7656 20.368C94.1976 20.256 94.5576 20.128 94.8456 19.984C95.1336 19.84 95.3416 19.664 95.4696 19.456C95.6136 19.248 95.6856 18.984 95.6856 18.664L95.7336 21.136H95.6376C95.5256 21.392 95.3576 21.592 95.1336 21.736C94.9096 21.88 94.6216 22.016 94.2696 22.144L93.8136 22.312C93.4776 22.44 93.1736 22.576 92.9016 22.72C92.6456 22.848 92.4456 23.008 92.3016 23.2C92.1736 23.376 92.1096 23.616 92.1096 23.92C92.1096 24.336 92.2536 24.656 92.5416 24.88C92.8456 25.088 93.2296 25.192 93.6936 25.192C94.0136 25.192 94.3176 25.128 94.6056 25C94.9096 24.856 95.1576 24.624 95.3496 24.304C95.5416 23.984 95.6376 23.544 95.6376 22.984L96.5256 23.056C96.5256 24.32 96.3096 25.336 95.8776 26.104C95.4616 26.856 94.9016 27.408 94.1976 27.76C93.5096 28.096 92.7496 28.264 91.9176 28.264ZM102.991 28V25.744H104.719V17.608H103.159V15.376H108.559V19.72L109.039 19.624V25.744H111.631V28H102.991ZM107.839 20.152C107.887 18.824 108.127 17.792 108.559 17.056C109.007 16.304 109.583 15.776 110.287 15.472C110.991 15.168 111.735 15.016 112.519 15.016C113.431 15.016 114.159 15.248 114.703 15.712C115.247 16.176 115.519 16.76 115.519 17.464C115.519 18.12 115.303 18.664 114.871 19.096C114.455 19.512 113.879 19.72 113.143 19.72C112.503 19.72 111.991 19.552 111.607 19.216C111.223 18.88 111.031 18.448 111.031 17.92C111.031 17.296 111.223 16.824 111.607 16.504C112.007 16.184 112.647 16.056 113.527 16.12L113.287 17.512C113.207 17.288 113.039 17.12 112.783 17.008C112.543 16.88 112.231 16.816 111.847 16.816C111.399 16.816 110.959 16.936 110.527 17.176C110.095 17.4 109.735 17.76 109.447 18.256C109.175 18.736 109.039 19.368 109.039 20.152H107.839ZM114.096 28V25.744H115.728V13.072H114.216V10.816H120.096V25.744H121.056V28H114.096ZM122.4 28V25.744H123.48L120.96 21.856L123.768 19.288L128.28 25.744H129.432V28H122.4ZM119.88 24.472L118.296 22.696L123.912 17.584H122.112V15.352H128.952V17.584H127.584L119.88 24.472ZM134.804 28.288C133.492 28.288 132.324 28.032 131.3 27.52C130.292 27.008 129.5 26.264 128.924 25.288C128.364 24.296 128.084 23.088 128.084 21.664C128.084 20.256 128.364 19.064 128.924 18.088C129.484 17.096 130.26 16.344 131.252 15.832C132.244 15.32 133.372 15.064 134.636 15.064L134.756 17.344C134.244 17.344 133.812 17.48 133.46 17.752C133.108 18.008 132.836 18.432 132.644 19.024C132.468 19.616 132.38 20.392 132.38 21.352C132.38 22.504 132.66 23.416 133.22 24.088C133.796 24.76 134.572 25.096 135.548 25.096C136.092 25.096 136.548 25.016 136.916 24.856C137.3 24.68 137.604 24.448 137.828 24.16C138.068 23.856 138.244 23.52 138.356 23.152H141.044C140.98 23.808 140.804 24.44 140.516 25.048C140.244 25.656 139.852 26.208 139.34 26.704C138.844 27.184 138.212 27.568 137.444 27.856C136.692 28.144 135.812 28.288 134.804 28.288ZM130.052 21.904V19.792H136.796L141.092 20.848V21.904H130.052ZM136.796 19.792C136.78 19.36 136.692 18.96 136.532 18.592C136.372 18.208 136.148 17.904 135.86 17.68C135.572 17.456 135.204 17.344 134.756 17.344L134.636 15.064C136.044 15.064 137.22 15.312 138.164 15.808C139.124 16.288 139.852 16.96 140.348 17.824C140.844 18.688 141.092 19.696 141.092 20.848L136.796 19.792ZM147.604 28.312C145.876 28.312 144.628 27.792 143.86 26.752C143.108 25.712 142.788 24.344 142.9 22.648L143.236 17.776H140.164V15.544H140.404C141.46 15.544 142.276 15.424 142.852 15.184C143.444 14.944 143.86 14.576 144.1 14.08C144.34 13.584 144.46 12.952 144.46 12.184V12.064H147.22V23.704C147.22 24.088 147.324 24.4 147.532 24.64C147.74 24.88 148.036 25 148.42 25C148.836 25 149.14 24.888 149.332 24.664C149.54 24.424 149.644 24.104 149.644 23.704V21.04H152.308V23.656C152.308 25.064 151.924 26.192 151.156 27.04C150.388 27.888 149.204 28.312 147.604 28.312ZM147.22 17.776V15.352H152.548V17.776H147.22Z" fill="#225C4B"/>
</svg>
