<svg width="20" height="20" viewBox="0 0 20 20" fill="none" xmlns="http://www.w3.org/2000/svg">
<path fill-rule="evenodd" clip-rule="evenodd" d="M5.74225 0H14.277C17.4227 0 19.1743 1.78 19.1743 4.83V15.16C19.1743 18.26 17.4227 20 14.277 20H5.74225C2.64647 20 0.843994 18.26 0.843994 15.16V4.83C0.843994 1.78 2.64647 0 5.74225 0ZM6.01721 4.66V4.65H9.06105C9.49996 4.65 9.85638 5 9.85638 5.429C9.85638 5.87 9.49996 6.22 9.06105 6.22H6.01721C5.5783 6.22 5.22289 5.87 5.22289 5.44C5.22289 5.01 5.5783 4.66 6.01721 4.66ZM6.01721 10.74H14.0011C14.4389 10.74 14.7954 10.39 14.7954 9.96C14.7954 9.53 14.4389 9.179 14.0011 9.179H6.01721C5.5783 9.179 5.22289 9.53 5.22289 9.96C5.22289 10.39 5.5783 10.74 6.01721 10.74ZM6.01721 15.31H14.0011C14.4074 15.27 14.7139 14.929 14.7139 14.53C14.7139 14.12 14.4074 13.78 14.0011 13.74H6.01721C5.7117 13.71 5.41638 13.85 5.25344 14.11C5.09051 14.36 5.09051 14.69 5.25344 14.95C5.41638 15.2 5.7117 15.35 6.01721 15.31Z" fill="#2A512A"/>
</svg>
