<svg width="20" height="20" viewBox="0 0 20 20" fill="none" xmlns="http://www.w3.org/2000/svg">
<path fill-rule="evenodd" clip-rule="evenodd" d="M18.5655 11.58C18.9298 11.77 19.2108 12.07 19.4085 12.37C19.7936 12.99 19.7624 13.75 19.3877 14.42L18.6592 15.62C18.2741 16.26 17.5561 16.66 16.8172 16.66C16.4529 16.66 16.047 16.56 15.714 16.36C15.4434 16.19 15.1312 16.13 14.7982 16.13C13.7679 16.13 12.9041 16.96 12.8729 17.95C12.8729 19.1 11.9154 20 10.7186 20H9.30324C8.09601 20 7.13856 19.1 7.13856 17.95C7.11775 16.96 6.25396 16.13 5.22366 16.13C4.88022 16.13 4.56801 16.19 4.30783 16.36C3.97481 16.56 3.55852 16.66 3.20468 16.66C2.45537 16.66 1.73728 16.26 1.35222 15.62L0.634131 14.42C0.249069 13.77 0.228255 12.99 0.613317 12.37C0.779831 12.07 1.09204 11.77 1.44588 11.58C1.73728 11.44 1.92461 11.21 2.10153 10.94C2.62189 10.08 2.30967 8.95 1.42507 8.44C0.394768 7.87 0.0617416 6.6 0.654946 5.61L1.35222 4.43C1.95583 3.44 3.24631 3.09 4.28702 3.67C5.19244 4.15 6.36844 3.83 6.8992 2.98C7.06571 2.7 7.15938 2.4 7.13856 2.1C7.11775 1.71 7.23223 1.34 7.42996 1.04C7.81502 0.42 8.5123 0.02 9.27201 0H10.7394C11.5095 0 12.2068 0.42 12.5919 1.04C12.7792 1.34 12.9041 1.71 12.8729 2.1C12.8521 2.4 12.9457 2.7 13.1122 2.98C13.643 3.83 14.819 4.15 15.7348 3.67C16.7651 3.09 18.066 3.44 18.6592 4.43L19.3565 5.61C19.9601 6.6 19.6271 7.87 18.5864 8.44C17.7018 8.95 17.3895 10.08 17.9203 10.94C18.0868 11.21 18.2741 11.44 18.5655 11.58ZM7.06571 10.01C7.06571 11.58 8.38741 12.83 10.0213 12.83C11.6552 12.83 12.9457 11.58 12.9457 10.01C12.9457 8.44 11.6552 7.18 10.0213 7.18C8.38741 7.18 7.06571 8.44 7.06571 10.01Z" fill="#2A512A"/>
</svg>
