<svg width="184" height="184" viewBox="0 0 184 184" fill="none" xmlns="http://www.w3.org/2000/svg">
<circle cx="92" cy="92" r="90.9" fill="#67BCEE" stroke="#E6E6E6" stroke-width="1.8"/>
<path d="M36.7938 115.363C36.2358 115.363 35.7678 115.237 35.3898 114.985C35.0118 114.715 34.7778 114.355 34.6878 113.905C34.5978 113.437 34.6788 112.915 34.9308 112.339L41.6538 97.867C41.9778 97.165 42.3738 96.652 42.8418 96.328C43.3278 96.004 43.8768 95.842 44.4888 95.842C45.1008 95.842 45.6318 96.004 46.0818 96.328C46.5498 96.652 46.9548 97.165 47.2968 97.867L54.0198 112.339C54.3078 112.915 54.4068 113.437 54.3168 113.905C54.2448 114.373 54.0198 114.733 53.6418 114.985C53.2818 115.237 52.8318 115.363 52.2918 115.363C51.5718 115.363 51.0138 115.201 50.6178 114.877C50.2398 114.553 49.8978 114.031 49.5918 113.311L48.1338 109.882L50.0238 111.259H38.8998L40.8168 109.882L39.3588 113.311C39.0348 114.031 38.7018 114.553 38.3598 114.877C38.0178 115.201 37.4958 115.363 36.7938 115.363ZM44.4348 101.269L41.3028 108.748L40.5468 107.452H48.4038L47.6478 108.748L44.4888 101.269H44.4348ZM57.9869 115.12C57.3569 115.12 56.8349 114.985 56.4209 114.715C56.0249 114.445 55.7549 114.085 55.6109 113.635C55.4669 113.167 55.4669 112.663 55.6109 112.123C55.7549 111.565 56.0519 111.007 56.5019 110.449L65.8169 98.758V100.162H57.6089C56.9069 100.162 56.3759 99.991 56.0159 99.649C55.6559 99.289 55.4759 98.776 55.4759 98.11C55.4759 97.444 55.6559 96.94 56.0159 96.598C56.3759 96.256 56.9069 96.085 57.6089 96.085H68.1389C68.7689 96.085 69.2819 96.22 69.6779 96.49C70.0919 96.76 70.3709 97.12 70.5149 97.57C70.6589 98.02 70.6589 98.524 70.5149 99.082C70.3709 99.64 70.0739 100.198 69.6239 100.756L60.3089 112.447V111.043H68.9489C69.6329 111.043 70.1549 111.214 70.5149 111.556C70.8929 111.898 71.0819 112.402 71.0819 113.068C71.0819 113.734 70.8929 114.247 70.5149 114.607C70.1549 114.949 69.6329 115.12 68.9489 115.12H57.9869ZM81.5309 115.417C80.1449 115.417 78.9209 115.246 77.8589 114.904C76.7969 114.544 75.8969 114.013 75.1589 113.311C74.4389 112.609 73.8899 111.736 73.5119 110.692C73.1519 109.63 72.9719 108.406 72.9719 107.02V98.353C72.9719 97.525 73.1879 96.904 73.6199 96.49C74.0519 96.058 74.6639 95.842 75.4559 95.842C76.2659 95.842 76.8779 96.058 77.2919 96.49C77.7239 96.904 77.9399 97.525 77.9399 98.353V107.074C77.9399 108.46 78.2459 109.504 78.8579 110.206C79.4699 110.908 80.3609 111.259 81.5309 111.259C82.6829 111.259 83.5649 110.908 84.1769 110.206C84.7889 109.504 85.0949 108.46 85.0949 107.074V98.353C85.0949 97.525 85.3019 96.904 85.7159 96.49C86.1479 96.058 86.7599 95.842 87.5519 95.842C88.3439 95.842 88.9469 96.058 89.3609 96.49C89.7749 96.904 89.9819 97.525 89.9819 98.353V107.02C89.9819 108.874 89.6579 110.431 89.0099 111.691C88.3799 112.933 87.4349 113.869 86.1749 114.499C84.9149 115.111 83.3669 115.417 81.5309 115.417ZM83.3939 94.249C83.0879 94.555 82.7549 94.708 82.3949 94.708C82.0529 94.708 81.7379 94.609 81.4499 94.411C81.1799 94.195 80.9999 93.934 80.9099 93.628C80.8199 93.304 80.8919 92.971 81.1259 92.629L82.8809 90.01C83.1329 89.632 83.4389 89.407 83.7989 89.335C84.1589 89.263 84.5099 89.299 84.8519 89.443C85.1939 89.569 85.4819 89.776 85.7159 90.064C85.9499 90.334 86.0759 90.64 86.0939 90.982C86.1119 91.324 85.9589 91.657 85.6349 91.981L83.3939 94.249ZM102.916 115.417C100.81 115.417 99.0012 115.012 97.4892 114.202C95.9772 113.392 94.8162 112.249 94.0062 110.773C93.2142 109.297 92.8182 107.569 92.8182 105.589C92.8182 104.113 93.0432 102.772 93.4932 101.566C93.9612 100.36 94.6272 99.325 95.4912 98.461C96.3732 97.597 97.4352 96.94 98.6772 96.49C99.9372 96.022 101.35 95.788 102.916 95.788C103.744 95.788 104.599 95.887 105.481 96.085C106.381 96.265 107.173 96.544 107.857 96.922C108.361 97.192 108.712 97.534 108.91 97.948C109.108 98.362 109.171 98.785 109.099 99.217C109.045 99.649 108.892 100.036 108.64 100.378C108.388 100.72 108.064 100.954 107.668 101.08C107.272 101.188 106.84 101.125 106.372 100.891C105.832 100.639 105.292 100.45 104.752 100.324C104.23 100.18 103.681 100.108 103.105 100.108C101.989 100.108 101.053 100.324 100.297 100.756C99.5592 101.17 99.0012 101.782 98.6232 102.592C98.2452 103.402 98.0562 104.401 98.0562 105.589C98.0562 106.777 98.2452 107.785 98.6232 108.613C99.0012 109.423 99.5592 110.044 100.297 110.476C101.053 110.89 101.989 111.097 103.105 111.097C103.573 111.097 104.077 111.043 104.617 110.935C105.157 110.809 105.688 110.62 106.21 110.368C106.75 110.134 107.227 110.071 107.641 110.179C108.073 110.287 108.415 110.503 108.667 110.827C108.937 111.151 109.108 111.529 109.18 111.961C109.252 112.375 109.189 112.789 108.991 113.203C108.811 113.617 108.487 113.95 108.019 114.202C107.389 114.58 106.606 114.877 105.67 115.093C104.752 115.309 103.834 115.417 102.916 115.417ZM112.468 115.363C111.91 115.363 111.442 115.237 111.064 114.985C110.686 114.715 110.452 114.355 110.362 113.905C110.272 113.437 110.353 112.915 110.605 112.339L117.328 97.867C117.652 97.165 118.048 96.652 118.516 96.328C119.002 96.004 119.551 95.842 120.163 95.842C120.775 95.842 121.306 96.004 121.756 96.328C122.224 96.652 122.629 97.165 122.971 97.867L129.694 112.339C129.982 112.915 130.081 113.437 129.991 113.905C129.919 114.373 129.694 114.733 129.316 114.985C128.956 115.237 128.506 115.363 127.966 115.363C127.246 115.363 126.688 115.201 126.292 114.877C125.914 114.553 125.572 114.031 125.266 113.311L123.808 109.882L125.698 111.259H114.574L116.491 109.882L115.033 113.311C114.709 114.031 114.376 114.553 114.034 114.877C113.692 115.201 113.17 115.363 112.468 115.363ZM120.109 101.269L116.977 108.748L116.221 107.452H124.078L123.322 108.748L120.163 101.269H120.109ZM134.653 115.363C133.861 115.363 133.249 115.147 132.817 114.715C132.385 114.265 132.169 113.644 132.169 112.852V98.596C132.169 97.786 132.385 97.165 132.817 96.733C133.267 96.301 133.888 96.085 134.68 96.085H141.322C143.482 96.085 145.147 96.616 146.317 97.678C147.505 98.722 148.099 100.18 148.099 102.052C148.099 103.258 147.829 104.311 147.289 105.211C146.767 106.093 146.002 106.777 144.994 107.263C144.004 107.731 142.78 107.965 141.322 107.965L141.538 107.479H142.834C143.608 107.479 144.292 107.668 144.886 108.046C145.48 108.406 145.975 108.964 146.371 109.72L147.721 112.15C148.009 112.672 148.144 113.185 148.126 113.689C148.108 114.175 147.91 114.58 147.532 114.904C147.172 115.21 146.641 115.363 145.939 115.363C145.237 115.363 144.661 115.219 144.211 114.931C143.779 114.643 143.392 114.193 143.05 113.581L140.593 109.072C140.377 108.676 140.098 108.406 139.756 108.262C139.432 108.1 139.054 108.019 138.622 108.019H137.137V112.852C137.137 113.644 136.93 114.265 136.516 114.715C136.102 115.147 135.481 115.363 134.653 115.363ZM137.137 104.509H140.431C141.385 104.509 142.114 104.32 142.618 103.942C143.122 103.564 143.374 102.979 143.374 102.187C143.374 101.431 143.122 100.864 142.618 100.486C142.114 100.09 141.385 99.892 140.431 99.892H137.137V104.509Z" fill="white"/>
<path d="M24.2193 84.8781C23.6385 84.8781 23.0577 84.8319 22.4769 84.7395C21.8961 84.6603 21.3483 84.5349 20.8335 84.3633C20.3187 84.1785 19.8567 83.9541 19.4475 83.6901C19.2099 83.5317 19.0449 83.3403 18.9525 83.1159C18.8601 82.8915 18.8271 82.6737 18.8535 82.4625C18.8931 82.2381 18.9789 82.0467 19.1109 81.8883C19.2561 81.7167 19.4343 81.6111 19.6455 81.5715C19.8567 81.5319 20.0877 81.5913 20.3385 81.7497C20.9193 82.0929 21.5331 82.3437 22.1799 82.5021C22.8267 82.6605 23.5065 82.7397 24.2193 82.7397C25.2621 82.7397 26.0211 82.5681 26.4963 82.2249C26.9715 81.8685 27.2091 81.4131 27.2091 80.8587C27.2091 80.3967 27.0375 80.0337 26.6943 79.7697C26.3643 79.5057 25.7901 79.2879 24.9717 79.1163L22.7937 78.6609C21.5397 78.3969 20.6025 77.9547 19.9821 77.3343C19.3749 76.7007 19.0713 75.8691 19.0713 74.8395C19.0713 74.1927 19.2033 73.6053 19.4673 73.0773C19.7313 72.5493 20.1009 72.0939 20.5761 71.7111C21.0645 71.3283 21.6387 71.0379 22.2987 70.8399C22.9719 70.6287 23.7111 70.5231 24.5163 70.5231C25.3083 70.5231 26.0607 70.6221 26.7735 70.8201C27.4863 71.0181 28.1265 71.3085 28.6941 71.6913C28.9053 71.8365 29.0439 72.0147 29.1099 72.2259C29.1891 72.4371 29.2089 72.6483 29.1693 72.8595C29.1297 73.0575 29.0373 73.2291 28.8921 73.3743C28.7469 73.5195 28.5621 73.6053 28.3377 73.6317C28.1265 73.6581 27.8823 73.5921 27.6051 73.4337C27.1167 73.1565 26.6217 72.9585 26.1201 72.8397C25.6185 72.7209 25.0773 72.6615 24.4965 72.6615C23.8893 72.6615 23.3679 72.7473 22.9323 72.9189C22.4967 73.0905 22.1601 73.3347 21.9225 73.6515C21.6981 73.9551 21.5859 74.3181 21.5859 74.7405C21.5859 75.2157 21.7443 75.5985 22.0611 75.8889C22.3779 76.1661 22.9191 76.3839 23.6847 76.5423L25.8429 76.9977C27.1497 77.2749 28.1199 77.7105 28.7535 78.3045C29.4003 78.8985 29.7237 79.6905 29.7237 80.6805C29.7237 81.3141 29.5917 81.8883 29.3277 82.4031C29.0769 82.9179 28.7073 83.3601 28.2189 83.7297C27.7437 84.0993 27.1695 84.3831 26.4963 84.5811C25.8231 84.7791 25.0641 84.8781 24.2193 84.8781ZM33.1661 84.8385C32.7569 84.8385 32.4401 84.7263 32.2157 84.5019C32.0045 84.2643 31.8989 83.9409 31.8989 83.5317V71.8695C31.8989 71.4471 32.0045 71.1237 32.2157 70.8993C32.4401 70.6749 32.7569 70.5627 33.1661 70.5627C33.5753 70.5627 33.8855 70.6749 34.0967 70.8993C34.3211 71.1237 34.4333 71.4471 34.4333 71.8695V83.5317C34.4333 83.9409 34.3277 84.2643 34.1165 84.5019C33.9053 84.7263 33.5885 84.8385 33.1661 84.8385ZM38.675 84.8385C38.2922 84.8385 37.9952 84.7329 37.784 84.5217C37.586 84.3105 37.487 84.0069 37.487 83.6109V71.8299C37.487 71.4207 37.586 71.1105 37.784 70.8993C37.9952 70.6749 38.2658 70.5627 38.5958 70.5627C38.8994 70.5627 39.1238 70.6221 39.269 70.7409C39.4274 70.8465 39.6122 71.0313 39.8234 71.2953L47.4068 81.1359H46.892V71.7705C46.892 71.3877 46.991 71.0907 47.189 70.8795C47.4002 70.6683 47.6972 70.5627 48.08 70.5627C48.4628 70.5627 48.7532 70.6683 48.9512 70.8795C49.1492 71.0907 49.2482 71.3877 49.2482 71.7705V83.6505C49.2482 84.0201 49.1558 84.3105 48.971 84.5217C48.7862 84.7329 48.5354 84.8385 48.2186 84.8385C47.915 84.8385 47.6708 84.7791 47.486 84.6603C47.3144 84.5415 47.123 84.3501 46.9118 84.0861L39.3482 74.2455H39.8432V83.6109C39.8432 84.0069 39.7442 84.3105 39.5462 84.5217C39.3482 84.7329 39.0578 84.8385 38.675 84.8385ZM59.0201 84.6801C58.5845 84.6801 58.2479 84.5679 58.0103 84.3435C57.7859 84.1059 57.6737 83.7693 57.6737 83.3337V72.0675C57.6737 71.6319 57.7859 71.3019 58.0103 71.0775C58.2479 70.8399 58.5845 70.7211 59.0201 70.7211H66.0887C66.4187 70.7211 66.6695 70.8069 66.8411 70.9785C67.0259 71.1501 67.1183 71.3943 67.1183 71.7111C67.1183 72.0411 67.0259 72.2985 66.8411 72.4833C66.6695 72.6549 66.4187 72.7407 66.0887 72.7407H60.1091V76.5819H65.6531C65.9963 76.5819 66.2537 76.6677 66.4253 76.8393C66.5969 77.0109 66.6827 77.2617 66.6827 77.5917C66.6827 77.9217 66.5969 78.1725 66.4253 78.3441C66.2537 78.5157 65.9963 78.6015 65.6531 78.6015H60.1091V82.6605H66.0887C66.4187 82.6605 66.6695 82.7463 66.8411 82.9179C67.0259 83.0895 67.1183 83.3403 67.1183 83.6703C67.1183 84.0003 67.0259 84.2511 66.8411 84.4227C66.6695 84.5943 66.4187 84.6801 66.0887 84.6801H59.0201ZM69.8665 84.8385C69.5365 84.8385 69.2659 84.7527 69.0547 84.5811C68.8435 84.3963 68.7181 84.1719 68.6785 83.9079C68.6521 83.6307 68.7445 83.3535 68.9557 83.0763L73.4899 77.0373V78.1263L69.1735 72.3447C68.9623 72.0543 68.8699 71.7771 68.8963 71.5131C68.9227 71.2359 69.0415 71.0115 69.2527 70.8399C69.4639 70.6551 69.7279 70.5627 70.0447 70.5627C70.3087 70.5627 70.5397 70.6287 70.7377 70.7607C70.9489 70.8795 71.1601 71.0841 71.3713 71.3745L74.9353 76.2849H74.1235L77.6677 71.3745C77.8789 71.0841 78.0835 70.8795 78.2815 70.7607C78.4927 70.6287 78.7369 70.5627 79.0141 70.5627C79.3441 70.5627 79.6147 70.6485 79.8259 70.8201C80.0371 70.9917 80.1559 71.2161 80.1823 71.4933C80.2087 71.7573 80.1097 72.0411 79.8853 72.3447L75.5689 78.1263V77.0373L80.0833 83.0763C80.2945 83.3535 80.3869 83.6307 80.3605 83.9079C80.3341 84.1719 80.2153 84.3963 80.0041 84.5811C79.7929 84.7527 79.5157 84.8385 79.1725 84.8385C78.9217 84.8385 78.6907 84.7725 78.4795 84.6405C78.2815 84.5085 78.0703 84.2973 77.8459 84.0069L74.0839 78.8589H74.9551L71.2129 84.0069C71.0017 84.2973 70.7905 84.5085 70.5793 84.6405C70.3681 84.7725 70.1305 84.8385 69.8665 84.8385ZM88.6281 84.8781C87.1761 84.8781 85.9287 84.5877 84.8859 84.0069C83.8563 83.4129 83.0643 82.5813 82.5099 81.5121C81.9555 80.4297 81.6783 79.1559 81.6783 77.6907C81.6783 76.5951 81.8367 75.6117 82.1535 74.7405C82.4703 73.8561 82.9257 73.1037 83.5197 72.4833C84.1137 71.8497 84.8397 71.3679 85.6977 71.0379C86.5689 70.6947 87.5457 70.5231 88.6281 70.5231C89.3541 70.5231 90.0669 70.6155 90.7665 70.8003C91.4661 70.9851 92.0799 71.2491 92.6079 71.5923C92.8851 71.7639 93.0699 71.9751 93.1623 72.2259C93.2547 72.4635 93.2745 72.7011 93.2217 72.9387C93.1689 73.1631 93.0567 73.3545 92.8851 73.5129C92.7267 73.6713 92.5221 73.7637 92.2713 73.7901C92.0337 73.8033 91.7697 73.7175 91.4793 73.5327C91.0701 73.2687 90.6279 73.0773 90.1527 72.9585C89.6775 72.8397 89.1957 72.7803 88.7073 72.7803C87.7701 72.7803 86.9781 72.9717 86.3313 73.3545C85.6845 73.7373 85.1961 74.2917 84.8661 75.0177C84.5361 75.7437 84.3711 76.6347 84.3711 77.6907C84.3711 78.7335 84.5361 79.6245 84.8661 80.3637C85.1961 81.1029 85.6845 81.6639 86.3313 82.0467C86.9781 82.4295 87.7701 82.6209 88.7073 82.6209C89.2089 82.6209 89.7039 82.5615 90.1923 82.4427C90.6807 82.3107 91.1427 82.1127 91.5783 81.8487C91.8687 81.6771 92.1261 81.6045 92.3505 81.6309C92.5881 81.6441 92.7861 81.7233 92.9445 81.8685C93.1029 82.0137 93.2085 82.1985 93.2613 82.4229C93.3141 82.6341 93.3009 82.8585 93.2217 83.0961C93.1425 83.3205 92.9841 83.5185 92.7465 83.6901C92.2185 84.0729 91.5849 84.3699 90.8457 84.5811C90.1197 84.7791 89.3805 84.8781 88.6281 84.8781ZM96.9379 84.6801C96.5023 84.6801 96.1657 84.5679 95.9281 84.3435C95.7037 84.1059 95.5915 83.7693 95.5915 83.3337V72.0675C95.5915 71.6319 95.7037 71.3019 95.9281 71.0775C96.1657 70.8399 96.5023 70.7211 96.9379 70.7211H104.006C104.336 70.7211 104.587 70.8069 104.759 70.9785C104.944 71.1501 105.036 71.3943 105.036 71.7111C105.036 72.0411 104.944 72.2985 104.759 72.4833C104.587 72.6549 104.336 72.7407 104.006 72.7407H98.0269V76.5819H103.571C103.914 76.5819 104.171 76.6677 104.343 76.8393C104.515 77.0109 104.6 77.2617 104.6 77.5917C104.6 77.9217 104.515 78.1725 104.343 78.3441C104.171 78.5157 103.914 78.6015 103.571 78.6015H98.0269V82.6605H104.006C104.336 82.6605 104.587 82.7463 104.759 82.9179C104.944 83.0895 105.036 83.3403 105.036 83.6703C105.036 84.0003 104.944 84.2511 104.759 84.4227C104.587 84.5943 104.336 84.6801 104.006 84.6801H96.9379ZM112.024 84.8781C111.443 84.8781 110.862 84.8319 110.281 84.7395C109.701 84.6603 109.153 84.5349 108.638 84.3633C108.123 84.1785 107.661 83.9541 107.252 83.6901C107.014 83.5317 106.849 83.3403 106.757 83.1159C106.665 82.8915 106.632 82.6737 106.658 82.4625C106.698 82.2381 106.783 82.0467 106.915 81.8883C107.061 81.7167 107.239 81.6111 107.45 81.5715C107.661 81.5319 107.892 81.5913 108.143 81.7497C108.724 82.0929 109.338 82.3437 109.984 82.5021C110.631 82.6605 111.311 82.7397 112.024 82.7397C113.067 82.7397 113.826 82.5681 114.301 82.2249C114.776 81.8685 115.014 81.4131 115.014 80.8587C115.014 80.3967 114.842 80.0337 114.499 79.7697C114.169 79.5057 113.595 79.2879 112.776 79.1163L110.598 78.6609C109.344 78.3969 108.407 77.9547 107.787 77.3343C107.179 76.7007 106.876 75.8691 106.876 74.8395C106.876 74.1927 107.008 73.6053 107.272 73.0773C107.536 72.5493 107.905 72.0939 108.381 71.7111C108.869 71.3283 109.443 71.0379 110.103 70.8399C110.776 70.6287 111.516 70.5231 112.321 70.5231C113.113 70.5231 113.865 70.6221 114.578 70.8201C115.291 71.0181 115.931 71.3085 116.499 71.6913C116.71 71.8365 116.848 72.0147 116.914 72.2259C116.994 72.4371 117.013 72.6483 116.974 72.8595C116.934 73.0575 116.842 73.2291 116.697 73.3743C116.551 73.5195 116.367 73.6053 116.142 73.6317C115.931 73.6581 115.687 73.5921 115.41 73.4337C114.921 73.1565 114.426 72.9585 113.925 72.8397C113.423 72.7209 112.882 72.6615 112.301 72.6615C111.694 72.6615 111.172 72.7473 110.737 72.9189C110.301 73.0905 109.965 73.3347 109.727 73.6515C109.503 73.9551 109.39 74.3181 109.39 74.7405C109.39 75.2157 109.549 75.5985 109.866 75.8889C110.182 76.1661 110.724 76.3839 111.489 76.5423L113.647 76.9977C114.954 77.2749 115.924 77.7105 116.558 78.3045C117.205 78.8985 117.528 79.6905 117.528 80.6805C117.528 81.3141 117.396 81.8883 117.132 82.4031C116.881 82.9179 116.512 83.3601 116.023 83.7297C115.548 84.0993 114.974 84.3831 114.301 84.5811C113.628 84.7791 112.869 84.8781 112.024 84.8781ZM125.96 84.8781C124.614 84.8781 123.432 84.5811 122.416 83.9871C121.413 83.3931 120.634 82.5615 120.08 81.4923C119.525 80.4099 119.248 79.1427 119.248 77.6907C119.248 76.5951 119.406 75.6117 119.723 74.7405C120.04 73.8561 120.489 73.1037 121.07 72.4833C121.664 71.8497 122.37 71.3679 123.188 71.0379C124.02 70.6947 124.944 70.5231 125.96 70.5231C127.32 70.5231 128.501 70.8201 129.504 71.4141C130.508 71.9949 131.286 72.8199 131.841 73.8891C132.395 74.9583 132.672 76.2189 132.672 77.6709C132.672 78.7665 132.514 79.7565 132.197 80.6409C131.88 81.5253 131.425 82.2843 130.831 82.9179C130.25 83.5515 129.544 84.0399 128.712 84.3831C127.894 84.7131 126.977 84.8781 125.96 84.8781ZM125.96 82.7001C126.818 82.7001 127.544 82.5021 128.138 82.1061C128.745 81.7101 129.207 81.1359 129.524 80.3835C129.854 79.6311 130.019 78.7335 130.019 77.6907C130.019 76.1067 129.663 74.8791 128.95 74.0079C128.25 73.1367 127.254 72.7011 125.96 72.7011C125.115 72.7011 124.389 72.8991 123.782 73.2951C123.175 73.6779 122.706 74.2455 122.376 74.9979C122.06 75.7371 121.901 76.6347 121.901 77.6907C121.901 79.2615 122.258 80.4891 122.97 81.3735C123.683 82.2579 124.68 82.7001 125.96 82.7001ZM141.971 84.6801C141.536 84.6801 141.199 84.5679 140.961 84.3435C140.737 84.1059 140.625 83.7693 140.625 83.3337V72.0675C140.625 71.6319 140.737 71.3019 140.961 71.0775C141.199 70.8399 141.536 70.7211 141.971 70.7211H145.812C148.149 70.7211 149.951 71.3217 151.218 72.5229C152.498 73.7241 153.138 75.4467 153.138 77.6907C153.138 78.8127 152.973 79.8093 152.643 80.6805C152.327 81.5385 151.851 82.2645 151.218 82.8585C150.597 83.4525 149.832 83.9079 148.921 84.2247C148.023 84.5283 146.987 84.6801 145.812 84.6801H141.971ZM143.159 82.5813H145.654C146.472 82.5813 147.179 82.4823 147.773 82.2843C148.38 82.0731 148.881 81.7695 149.277 81.3735C149.687 80.9643 149.99 80.4561 150.188 79.8489C150.386 79.2285 150.485 78.5091 150.485 77.6907C150.485 76.0539 150.083 74.8329 149.277 74.0277C148.472 73.2225 147.264 72.8199 145.654 72.8199H143.159V82.5813ZM157.053 84.6801C156.618 84.6801 156.281 84.5679 156.044 84.3435C155.819 84.1059 155.707 83.7693 155.707 83.3337V72.0675C155.707 71.6319 155.819 71.3019 156.044 71.0775C156.281 70.8399 156.618 70.7211 157.053 70.7211H164.122C164.452 70.7211 164.703 70.8069 164.874 70.9785C165.059 71.1501 165.152 71.3943 165.152 71.7111C165.152 72.0411 165.059 72.2985 164.874 72.4833C164.703 72.6549 164.452 72.7407 164.122 72.7407H158.142V76.5819H163.686C164.03 76.5819 164.287 76.6677 164.459 76.8393C164.63 77.0109 164.716 77.2617 164.716 77.5917C164.716 77.9217 164.63 78.1725 164.459 78.3441C164.287 78.5157 164.03 78.6015 163.686 78.6015H158.142V82.6605H164.122C164.452 82.6605 164.703 82.7463 164.874 82.9179C165.059 83.0895 165.152 83.3403 165.152 83.6703C165.152 84.0003 165.059 84.2511 164.874 84.4227C164.703 84.5943 164.452 84.6801 164.122 84.6801H157.053Z" fill="white"/>
</svg>
