<svg width="14" height="13" viewBox="0 0 14 13" fill="none" xmlns="http://www.w3.org/2000/svg">
<path d="M7.27563 10.421L10.4281 12.418C10.8311 12.673 11.3311 12.2935 11.2116 11.823L10.3011 8.24055C10.2754 8.14075 10.2784 8.03573 10.3097 7.93755C10.341 7.83937 10.3994 7.75202 10.4781 7.68554L13.3051 5.33305C13.6761 5.02404 13.4851 4.40755 13.0076 4.37654L9.31613 4.13655C9.21674 4.12949 9.1214 4.09436 9.0412 4.03523C8.961 3.9761 8.89925 3.89541 8.86313 3.80254L7.48613 0.335545C7.44864 0.237015 7.38208 0.152208 7.29528 0.09237C7.20849 0.0325317 7.10555 0.000488281 7.00013 0.000488281C6.89471 0.000488281 6.79177 0.0325317 6.70498 0.09237C6.61818 0.152208 6.55162 0.237015 6.51413 0.335545L5.13713 3.80254C5.10109 3.8955 5.03937 3.9763 4.95916 4.03552C4.87896 4.09474 4.78358 4.12995 4.68413 4.13704L0.99263 4.37704C0.515631 4.40754 0.323631 5.02404 0.695131 5.33305L3.52213 7.68604C3.60079 7.75248 3.65911 7.83974 3.69042 7.93783C3.72173 8.03591 3.72475 8.14083 3.69913 8.24055L2.85513 11.563C2.71163 12.1275 3.31213 12.583 3.79513 12.2765L6.72513 10.421C6.80748 10.3687 6.90304 10.3409 7.00063 10.3409C7.09821 10.3409 7.19378 10.3687 7.27613 10.421H7.27563Z" opacity="0.0"/>
</svg>
