<svg width="24" height="24" viewBox="0 0 24 24" fill="none" xmlns="http://www.w3.org/2000/svg">
<path d="M23.3077 11.3077H21.4622C21.123 6.62692 17.3731 2.877 12.6923 2.53785V0.692308C12.6923 0.309923 12.3824 0 12 0C11.6176 0 11.3077 0.309923 11.3077 0.692308V2.53785C6.62692 2.877 2.877 6.62692 2.53785 11.3077H0.692308C0.309923 11.3077 0 11.6176 0 12C0 12.3824 0.309923 12.6923 0.692308 12.6923H2.53785C2.877 17.3731 6.62692 21.123 11.3077 21.4622V23.3077C11.3077 23.6901 11.6176 24 12 24C12.3824 24 12.6923 23.6901 12.6923 23.3077V21.4622C17.3731 21.1229 21.123 17.3731 21.4622 12.6923H23.3077C23.6901 12.6923 24 12.3824 24 12C24 11.6176 23.6901 11.3077 23.3077 11.3077ZM12.6923 20.0731V18.2828C12.6923 17.9004 12.3824 17.5905 12 17.5905C11.6176 17.5905 11.3077 17.9004 11.3077 18.2828V20.0731C7.39085 19.74 4.26 16.6092 3.92692 12.6923H5.71723C6.09962 12.6923 6.40954 12.3824 6.40954 12C6.40954 11.6176 6.09962 11.3077 5.71723 11.3077H3.92692C4.26 7.39085 7.39085 4.26 11.3077 3.92692V5.71723C11.3077 6.09962 11.6176 6.40954 12 6.40954C12.3824 6.40954 12.6923 6.09962 12.6923 5.71723V3.92692C16.6092 4.25992 19.74 7.39085 20.0731 11.3077H18.2828C17.9004 11.3077 17.5905 11.6176 17.5905 12C17.5905 12.3824 17.9004 12.6923 18.2828 12.6923H20.0731C19.74 16.6092 16.6092 19.74 12.6923 20.0731Z" fill="black"/>
<path d="M14.1006 9.89944C13.8303 9.62906 13.392 9.62906 13.1216 9.89944L12.0001 11.0209L10.8786 9.89944C10.6083 9.62906 10.17 9.62906 9.89957 9.89944C9.62918 10.1698 9.62918 10.6081 9.89957 10.8785L11.021 12L9.89957 13.1214C9.62918 13.3918 9.62918 13.8301 9.89957 14.1005C10.0347 14.2357 10.212 14.3033 10.3891 14.3033C10.5663 14.3033 10.7434 14.2357 10.8786 14.1005L12.0001 12.9791L13.1216 14.1005C13.2567 14.2357 13.434 14.3033 13.6111 14.3033C13.7883 14.3033 13.9654 14.2357 14.1006 14.1005C14.371 13.8301 14.371 13.3918 14.1006 13.1214L12.9792 12L14.1006 10.8785C14.371 10.6081 14.371 10.1698 14.1006 9.89944Z" fill="black"/>
</svg>
