<svg width="60" height="68" viewBox="0 0 60 68" fill="none" xmlns="http://www.w3.org/2000/svg">
<g clip-path="url(#clip0_132_501)">
<g clip-path="url(#clip1_132_501)">
<g clip-path="url(#clip2_132_501)">
<mask id="mask0_132_501" style="mask-type:luminance" maskUnits="userSpaceOnUse" x="0" y="0" width="60" height="61">
<path d="M59.7916 0.72998H0.486572V60.035H59.7916V0.72998Z" fill="white"/>
</mask>
<g mask="url(#mask0_132_501)">
<path d="M44.0168 56.6761C43.4162 56.6761 42.9224 57.1331 42.8641 57.7183H34.1476L32.7725 49.4377L34.3009 47.9094C34.5181 47.6922 34.6402 47.3975 34.6402 47.0904C34.6402 46.7832 34.5181 46.4886 34.3009 46.2713L32.9485 44.9189H35.2595C37.7957 44.9189 40.1557 46.1777 41.5722 48.2862C41.929 48.8172 42.6487 48.9584 43.1795 48.6018C43.7105 48.245 43.8518 47.5254 43.4951 46.9943C41.662 44.2658 38.6169 42.6291 35.3374 42.6034C36.4595 41.3608 37.1439 39.7158 37.1439 37.9137V36.2148C37.1439 32.3521 34.0014 29.2097 30.1387 29.2097C26.276 29.2097 23.1335 32.3521 23.1335 36.2148V37.9137C23.1335 39.7163 23.8182 41.3615 24.9406 42.6042C19.5089 42.6462 15.1025 47.0763 15.1025 52.5178V58.8766C15.1025 59.5163 15.6211 60.0349 16.2609 60.0349H44.0165C44.6563 60.0349 45.1749 59.5163 45.1749 58.8766V57.8344C45.1751 57.1948 44.6565 56.6761 44.0168 56.6761ZM30.1523 48.7819L28.4606 47.0904L30.1523 45.3988L31.844 47.0904L30.1523 48.7819ZM29.5527 51.4098C29.7365 51.5212 29.9441 51.5783 30.1522 51.5783C30.3602 51.5783 30.5679 51.5213 30.7516 51.4098L31.7993 57.7183H28.505L29.5527 51.4098ZM25.4504 36.2148C25.4504 33.6296 27.5536 31.5263 30.139 31.5263C32.7243 31.5263 34.8275 33.6294 34.8275 36.2148V37.9137C34.8275 40.4989 32.7243 42.6023 30.139 42.6023C27.5536 42.6023 25.4504 40.499 25.4504 37.9137V36.2148ZM17.4194 52.5178C17.4194 48.3276 20.8283 44.9189 25.0183 44.9189H27.3557L26.0033 46.2713C25.7861 46.4886 25.6641 46.7832 25.6641 47.0904C25.6641 47.3975 25.7861 47.6922 26.0033 47.9094L27.5318 49.4377L26.1567 57.7183H17.4193L17.4194 52.5178Z" fill="#2A512A"/>
<path d="M24 2.01569C24.3429 2.01569 32.1429 2.30141 36 2.44427V14.8728L24 14.4443V2.01569Z" fill="#FDC040"/>
<path d="M51.4287 2.44427L45.4287 13.5871H58.2859L52.2859 2.87284L51.4287 2.44427Z" fill="#FDC040"/>
<path d="M24 2.01569C24.3429 2.01569 32.1429 2.30141 36 2.44427V14.8728L24 14.4443V2.01569Z" stroke="black" stroke-width="0.857143" stroke-linecap="round" stroke-linejoin="round"/>
<path d="M51.4287 2.44427L45.4287 13.5871H58.2859L52.2859 2.87284L51.4287 2.44427Z" stroke="black" stroke-width="0.857143" stroke-linecap="round" stroke-linejoin="round"/>
<path d="M15.2995 8.13743C15.2995 4.05349 11.9769 0.731018 7.89309 0.731018C3.80927 0.731018 0.486572 4.05361 0.486572 8.13743C0.486572 12.2212 3.80916 15.5439 7.89298 15.5439C11.9768 15.5439 15.2995 12.2213 15.2995 8.13743ZM2.80317 8.13743C2.80317 5.33098 5.08641 3.04762 7.89298 3.04762C10.6996 3.04762 12.9827 5.33098 12.9827 8.13743C12.9827 10.9438 10.6996 13.2273 7.89298 13.2273C5.08641 13.2273 2.80317 10.944 2.80317 8.13743Z" fill="#2A512A"/>
<path d="M23.8909 15.543H36.3873C37.027 15.543 37.5456 15.0243 37.5456 14.3847V1.88838C37.5456 1.24877 37.027 0.730083 36.3873 0.730083H23.8909C23.2512 0.730083 22.7327 1.24877 22.7327 1.88838V14.3847C22.7327 15.0243 23.2512 15.543 23.8909 15.543ZM25.0493 3.04669H35.229V13.2264H25.0493V3.04669Z" fill="#2A512A"/>
<path d="M59.6364 13.3453L52.9528 1.7693C52.746 1.41092 52.3636 1.19015 51.9498 1.19015C51.5359 1.19015 51.1535 1.41092 50.9467 1.7693L44.2631 13.3453C44.0562 13.7038 44.0562 14.1453 44.2631 14.5037C44.47 14.862 44.8524 15.0828 45.2662 15.0828H58.6333C59.0471 15.0828 59.4295 14.862 59.6364 14.5037C59.8433 14.1453 59.8433 13.7038 59.6364 13.3453ZM47.2724 12.7662L51.9496 4.66506L56.6269 12.7662H47.2724Z" fill="#2A512A"/>
<path d="M30.1391 26.9358C30.7789 26.9358 31.2975 26.417 31.2975 25.7774V22.4724L31.3444 22.5379C31.5706 22.854 31.9262 23.0223 32.2873 23.0223C32.5206 23.0223 32.7562 22.952 32.9605 22.8058C33.4807 22.4335 33.6006 21.71 33.2284 21.1898L31.0812 18.1895C30.8637 17.8855 30.5129 17.7052 30.1393 17.7052C29.7656 17.7052 29.4148 17.8855 29.1973 18.1895L27.0502 21.1898C26.6779 21.71 26.7978 22.4335 27.318 22.8058C27.8382 23.178 28.5617 23.0583 28.9341 22.538L28.9809 22.4724V25.7774C28.9809 26.4172 29.4995 26.9358 30.1391 26.9358Z" fill="#2A512A"/>
<path d="M20.6024 36.3168C20.6024 35.6772 20.0838 35.1585 19.4441 35.1585H9.05793V22.4724L9.1049 22.5379C9.3311 22.854 9.68664 23.0223 10.0478 23.0223C10.2811 23.0223 10.5167 22.952 10.721 22.8058C11.2412 22.4335 11.3611 21.71 10.9888 21.1898L8.84167 18.1895C8.62413 17.8855 8.27343 17.7052 7.89976 17.7052C7.52609 17.7052 7.17536 17.8855 6.95783 18.1895L4.81069 21.1898C4.43841 21.71 4.5583 22.4335 5.07849 22.8058C5.59857 23.178 6.32216 23.0583 6.69455 22.538L6.74134 22.4724V36.3168C6.74134 36.9564 7.25992 37.4751 7.89964 37.4751H19.4441C20.0837 37.4751 20.6024 36.9565 20.6024 36.3168Z" fill="#2A512A"/>
<path d="M53.3205 18.1894C53.1029 17.8854 52.7522 17.7051 52.3786 17.7051C52.0049 17.7051 51.6542 17.8854 51.4366 18.1894L49.2895 21.1897C48.9172 21.7099 49.0371 22.4334 49.5573 22.8057C50.0775 23.178 50.8011 23.0582 51.1733 22.5379L51.2202 22.4724V35.1585H40.8341C40.1944 35.1585 39.6758 35.6772 39.6758 36.3168C39.6758 36.9564 40.1944 37.4751 40.8341 37.4751H52.3786C53.0182 37.4751 53.5368 36.9564 53.5368 36.3168V22.4724L53.5838 22.5379C53.81 22.854 54.1656 23.0223 54.5267 23.0223C54.76 23.0223 54.9956 22.952 55.1999 22.8058C55.7201 22.4335 55.84 21.7101 55.4678 21.1899L53.3205 18.1894Z" fill="#2A512A"/>
<path d="M44.0165 53.7805C44.6562 53.7805 45.1748 53.262 45.1748 52.6223C45.1748 51.9826 44.6562 51.4639 44.0165 51.4639C43.3767 51.4639 42.8582 51.9826 42.8582 52.6223C42.8582 53.262 43.3767 53.7805 44.0165 53.7805Z" fill="#2A512A"/>
</g>
</g>
</g>
</g>
<defs>
<clipPath id="clip0_132_501">
<rect width="60" height="60" fill="white" transform="translate(0 0.72998)"/>
</clipPath>
<clipPath id="clip1_132_501">
<rect width="60" height="60" fill="white" transform="translate(0 0.72998)"/>
</clipPath>
<clipPath id="clip2_132_501">
<rect width="60" height="60" fill="white" transform="translate(0 0.72998)"/>
</clipPath>
</defs>
</svg>
